<?xml version="1.0" standalone="no"?>
<!DOCTYPE svg PUBLIC "-//W3C//DTD SVG 20010904//EN"
 "http://www.w3.org/TR/2001/REC-SVG-20010904/DTD/svg10.dtd">
<svg version="1.0" xmlns="http://www.w3.org/2000/svg"
 width="150.000000pt" height="150.000000pt" viewBox="0 0 150.000000 150.000000"
 preserveAspectRatio="xMidYMid meet">
<metadata>
Created by potrace 1.11, written by Peter Selinger 2001-2013
</metadata>
<g transform="translate(0.000000,150.000000) scale(0.100000,-0.100000)"
fill="#000000" stroke="none">
<path d="M561 1470 c-265 -71 -465 -274 -532 -540 -31 -120 -24 -301 15 -415
76 -223 245 -392 472 -472 73 -26 90 -28 234 -28 144 0 161 2 234 28 227 80
394 247 473 472 26 74 28 91 28 235 0 144 -2 161 -28 235 -79 225 -248 394
-473 471 -109 38 -310 44 -423 14z m-91 -360 l58 -50 91 0 91 0 17 -35 c9 -19
19 -35 22 -35 3 0 13 15 22 33 l16 32 93 3 92 3 58 49 c31 28 59 50 63 50 3 0
11 -9 17 -20 8 -15 7 -19 -2 -15 -7 2 -32 -13 -56 -33 l-43 -38 56 -53 c52
-49 55 -56 55 -100 0 -39 -5 -52 -30 -76 -29 -28 -30 -31 -30 -129 l0 -101
-82 -82 -83 -83 -150 0 -150 0 -77 77 -78 78 0 106 c0 100 -1 107 -25 129 -21
19 -25 33 -25 78 0 50 3 58 45 104 25 28 45 53 45 57 0 4 -18 22 -40 40 -35
28 -53 61 -34 61 4 0 32 -22 64 -50z m480 -654 c0 -2 -8 -10 -17 -17 -16 -13
-17 -12 -4 4 13 16 21 21 21 13z m-250 -106 c0 -19 -7 -20 -99 -20 -95 0 -120
7 -106 30 3 6 50 10 106 10 92 0 99 -1 99 -20z m302 -2 c4 -23 3 -23 -99 -20
-94 3 -103 5 -103 23 0 17 8 19 99 19 94 0 99 -1 103 -22z"/>
<path d="M462 987 c-37 -37 -42 -48 -42 -88 0 -40 5 -50 43 -86 l42 -42 92 -3
92 -3 21 37 21 38 -28 24 -28 25 -3 -30 -3 -30 -67 3 -67 3 0 65 0 65 29 0 29
-1 -39 33 c-22 18 -41 33 -44 33 -3 0 -25 -19 -48 -43z"/>
<path d="M605 994 c22 -20 64 -56 93 -81 l52 -45 53 45 c28 25 70 61 92 81
l40 36 -64 -3 -64 -2 -26 -52 c-14 -29 -28 -52 -31 -52 -3 -1 -18 24 -33 54
l-27 55 -62 0 -63 -1 40 -35z"/>
<path d="M946 996 l-40 -33 32 5 33 4 -3 -68 -3 -69 -67 -3 -68 -3 0 31 0 31
-29 -22 -30 -22 20 -38 19 -39 92 0 92 0 43 42 c38 37 43 47 43 87 0 40 -5 51
-42 88 -23 24 -45 43 -48 43 -3 0 -23 -15 -44 -34z"/>
<path d="M570 900 c0 -27 3 -30 30 -30 27 0 30 3 30 30 0 27 -3 30 -30 30 -27
0 -30 -3 -30 -30z"/>
<path d="M870 900 c0 -27 3 -30 30 -30 27 0 30 3 30 30 0 27 -3 30 -30 30 -27
0 -30 -3 -30 -30z"/>
<path d="M736 782 c-13 -25 -14 -36 -4 -57 15 -32 23 -32 38 4 9 24 9 34 -3
57 l-15 28 -16 -32z"/>
<path d="M473 675 c0 -44 2 -61 4 -37 2 23 2 59 0 80 -2 20 -4 1 -4 -43z"/>
<path d="M1022 750 c-7 -14 -6 -158 1 -151 4 4 6 41 4 82 -1 41 -4 72 -5 69z"/>
<path d="M517 644 l1 -87 43 -43 43 -44 145 0 145 0 43 42 43 42 0 88 0 88
-88 0 -89 0 -23 -50 c-13 -27 -26 -50 -30 -50 -4 0 -17 23 -30 50 l-23 50 -91
0 -91 0 2 -86z"/>
</g>
</svg>
